<svg width="0" height="0" class="hidden">
  <symbol version="1.1" id="injury" xmlns="http://www.w3.org/2000/svg" xmlns:xlink="http://www.w3.org/1999/xlink" x="0px" y="0px" xml:space="preserve" viewBox="0 0 122.88 122.88">
    <g>
      <path d="M57.31,43.77l16.95-16.95l-0.82-10.18c-0.33-4.25,1.09-8.23,3.66-11.23c2.57-3,6.28-5.03,10.52-5.36 c4.25-0.33,8.23,1.09,11.23,3.66c3,2.57,5.03,6.28,5.36,10.52l0.37,4.57l2.44-0.09V18.7l0.12,0c4.18-0.09,8.01,1.48,10.85,4.13 c2.88,2.69,4.74,6.47,4.89,10.72l0,0.08h0.01l0,0.12c0.1,4.18-1.48,8.01-4.13,10.85c-2.69,2.88-6.47,4.74-10.73,4.89l-13.25,0.5 L79.15,65.61c-0.68,0.68-1.69,0.82-2.51,0.43l-16.47-6.17c-0.77-0.29-1.28-0.95-1.4-1.71l-2.07-12.48 C56.57,44.96,56.83,44.26,57.31,43.77L57.31,43.77L57.31,43.77z M22.03,23.3l7.04-0.58l-5.86-12.29l14.79,14.21l-6.43,0.96 l6.36,12.2L22.03,23.3L22.03,23.3L22.03,23.3z M14.15,51.48l6.08-4.24L7.99,39.43l21.39,4.51l-5.27,4.49l12.47,7.47L14.15,51.48 L14.15,51.48L14.15,51.48z M43.57,15.64l6.81,3.38l1-14.84l6.47,21.46l-6.63-2.53l-0.27,14.86L43.57,15.64L43.57,15.64L43.57,15.64 z M14.31,104.22l-0.19-0.02c-4.2-0.36-7.87-2.38-10.41-5.35c-2.55-2.98-3.97-6.92-3.66-11.12c0-0.07,0.01-0.15,0.02-0.22 c0.36-4.2,2.38-7.87,5.35-10.41c3.01-2.57,6.99-3.99,11.23-3.66l10.18,0.82l19.59-19.59c0.86-0.86,2.26-0.86,3.12,0 c0.41,0.41,0.62,0.93,0.64,1.47l1.34,10.46l15.98,6.31c1.13,0.44,1.69,1.72,1.25,2.86c-0.11,0.29-0.29,0.55-0.49,0.76L49.98,94.78 l-0.5,13.25c-0.15,4.25-2.01,8.04-4.89,10.72c-2.88,2.68-6.79,4.27-11.04,4.12c-4.25-0.15-8.04-2.01-10.72-4.89 c-2.68-2.88-4.27-6.79-4.12-11.04l0.09-2.36L14.31,104.22L14.31,104.22z M7.05,95.99c1.82,2.12,4.44,3.56,7.44,3.82l6.75,0.54 l0,0.01c1.17,0.09,2.07,1.09,2.03,2.27l-0.17,4.47c-0.11,3.03,1.03,5.82,2.95,7.88c1.92,2.06,4.62,3.39,7.65,3.49 c3.03,0.11,5.82-1.03,7.88-2.95c2.06-1.92,3.39-4.62,3.49-7.65l0.53-13.96c-0.02-0.59,0.19-1.19,0.64-1.65l16.5-16.5L48.7,70.21 l0,0c-0.73-0.28-1.28-0.95-1.38-1.77l-0.95-7.48L29.22,78.1c-0.44,0.44-1.06,0.69-1.73,0.64l-11.19-0.9 c-3.04-0.24-5.88,0.78-8.02,2.61c-2.14,1.83-3.59,4.48-3.83,7.52C4.21,91,5.22,93.84,7.05,95.99L7.05,95.99z M78.09,29.22 L61.23,46.09L62.9,56.2l14.12,5.29l15.24-15.24l0.01,0.01c0.38-0.38,0.9-0.62,1.48-0.64l14.12-0.53c3.03-0.11,5.74-1.43,7.65-3.49 c1.89-2.02,3.01-4.75,2.95-7.72c-0.01-0.08-0.01-0.16-0.01-0.24l0.01,0c-0.13-3-1.45-5.67-3.49-7.58 c-2.02-1.88-4.75-3.01-7.72-2.95c-0.08,0.01-0.16,0.01-0.24,0.01l0-0.01l-4.3,0.17c-1.21,0.1-2.28-0.81-2.37-2.03l-0.54-6.67 c-0.24-3.04-1.68-5.69-3.83-7.52C93.84,5.22,91,4.21,87.96,4.45c-3.04,0.24-5.69,1.68-7.52,3.83c-1.83,2.14-2.84,4.99-2.61,8.02 l0.89,11.11C78.8,28.06,78.59,28.73,78.09,29.22L78.09,29.22z"></path>
    </g>
  </symbol>
  <symbol xmlns="http://www.w3.org/2000/svg" shape-rendering="geometricPrecision" text-rendering="geometricPrecision" image-rendering="optimizeQuality" fill-rule="evenodd" clip-rule="evenodd" viewBox="0 0 512 512" id="gym-level">
    <path fill-rule="nonzero" d="M256 512c70.68 0 134.7-28.66 181.02-74.98C483.34 390.7 512 326.69 512 256c0-70.69-28.66-134.7-74.98-181.02C390.7 28.66 326.69 0 256 0 185.31 0 121.3 28.66 74.98 74.98 28.66 121.3 0 185.31 0 256c0 70.69 28.66 134.7 74.98 181.02C121.3 483.34 185.31 512 256 512zM146.96 284.09 256 175.06l109.04 109.03-40.51 40.52-68.52-68.51-68.52 68.52-40.53-40.53zm264.03 126.9c-39.66 39.66-94.47 64.2-154.99 64.2-60.53 0-115.33-24.54-154.99-64.2-39.66-39.66-64.2-94.46-64.2-154.99 0-60.53 24.54-115.33 64.2-154.99 39.66-39.66 94.46-64.2 154.99-64.2 60.53 0 115.33 24.54 154.99 64.2 39.66 39.66 64.2 94.46 64.2 154.99 0 60.53-24.54 115.33-64.2 154.99z"></path>
  </symbol>
  <symbol xmlns="http://www.w3.org/2000/svg" shape-rendering="geometricPrecision" text-rendering="geometricPrecision" image-rendering="optimizeQuality" fill-rule="evenodd" clip-rule="evenodd" viewBox="0 0 502 511.82" id="routine">
    <path fill-rule="nonzero" d="M279.75 471.21c14.34-1.9 25.67 12.12 20.81 25.75-2.54 6.91-8.44 11.76-15.76 12.73a260.727 260.727 0 0 1-50.81 1.54c-62.52-4.21-118.77-31.3-160.44-72.97C28.11 392.82 0 330.04 0 260.71 0 191.37 28.11 128.6 73.55 83.16S181.76 9.61 251.1 9.61c24.04 0 47.47 3.46 69.8 9.91a249.124 249.124 0 0 1 52.61 21.97l-4.95-12.96c-4.13-10.86 1.32-23.01 12.17-27.15 10.86-4.13 23.01 1.32 27.15 12.18L428.8 68.3a21.39 21.39 0 0 1 1.36 6.5c1.64 10.2-4.47 20.31-14.63 23.39l-56.03 17.14c-11.09 3.36-22.8-2.9-26.16-13.98-3.36-11.08 2.9-22.8 13.98-26.16l4.61-1.41a210.71 210.71 0 0 0-41.8-17.12c-18.57-5.36-38.37-8.24-59.03-8.24-58.62 0-111.7 23.76-150.11 62.18-38.42 38.41-62.18 91.48-62.18 150.11 0 58.62 23.76 111.69 62.18 150.11 34.81 34.81 81.66 57.59 133.77 61.55 14.9 1.13 30.23.76 44.99-1.16zm-67.09-312.63c0-10.71 8.69-19.4 19.41-19.4 10.71 0 19.4 8.69 19.4 19.4V276.7l80.85 35.54c9.8 4.31 14.24 15.75 9.93 25.55-4.31 9.79-15.75 14.24-25.55 9.93l-91.46-40.2c-7.35-2.77-12.58-9.86-12.58-18.17V158.58zm134.7 291.89c-15.62 7.99-13.54 30.9 3.29 35.93 4.87 1.38 9.72.96 14.26-1.31 12.52-6.29 24.54-13.7 35.81-22.02 5.5-4.1 8.36-10.56 7.77-17.39-1.5-15.09-18.68-22.74-30.89-13.78a208.144 208.144 0 0 1-30.24 18.57zm79.16-69.55c-8.84 13.18 1.09 30.9 16.97 30.2 6.21-.33 11.77-3.37 15.25-8.57 7.86-11.66 14.65-23.87 20.47-36.67 5.61-12.64-3.13-26.8-16.96-27.39-7.93-.26-15.11 4.17-18.41 11.4-4.93 10.85-10.66 21.15-17.32 31.03zm35.66-99.52c-.7 7.62 3 14.76 9.59 18.63 12.36 7.02 27.6-.84 29.05-14.97 1.33-14.02 1.54-27.9.58-41.95-.48-6.75-4.38-12.7-10.38-15.85-13.46-6.98-29.41 3.46-28.34 18.57.82 11.92.63 23.67-.5 35.57zM446.1 177.02c4.35 10.03 16.02 14.54 25.95 9.96 9.57-4.4 13.86-15.61 9.71-25.29-5.5-12.89-12.12-25.28-19.69-37.08-9.51-14.62-31.89-10.36-35.35 6.75-.95 5.03-.05 9.94 2.72 14.27 6.42 10.02 12 20.44 16.66 31.39z"></path>
  </symbol>
  <symbol id="like2" xmlns="http://www.w3.org/2000/svg" viewBox="0 0 122.88 105.01">
    <defs></defs>
    <title>like</title>
    <path d="M4,43.36H32.37a4,4,0,0,1,4,4V101a4,4,0,0,1-4,4H4a4,4,0,0,1-4-4V47.39a4,4,0,0,1,4-4ZM62.16,6.3A7.36,7.36,0,0,1,66.23.65,8.14,8.14,0,0,1,71.79.34a15.36,15.36,0,0,1,5.3,2.71A26.21,26.21,0,0,1,86.81,21.9a57.41,57.41,0,0,1-.12,8.35q-.25,2.94-.76,6.15h20.2a21.58,21.58,0,0,1,9.1,2.33,14.7,14.7,0,0,1,5.6,4.92,12.55,12.55,0,0,1,2,7.51,18.1,18.1,0,0,1-1.82,6.93,21.82,21.82,0,0,1,.54,8.38,9.7,9.7,0,0,1-2.78,5.68,25.22,25.22,0,0,1-1.4,9.43,19.81,19.81,0,0,1-4.5,7,28.37,28.37,0,0,1-.9,5A17.3,17.3,0,0,1,109.5,99h0c-3.43,4.84-6.17,4.73-10.51,4.55-.61,0-1.26,0-2.26,0H57.39a19.08,19.08,0,0,1-8.86-1.78,21.13,21.13,0,0,1-7-6.06L41,94V48.15l2-.53c5.08-1.37,9.07-5.71,12.16-10.9a75.8,75.8,0,0,0,7-16.64V6.82l.06-.52Zm6.32-.78a2.15,2.15,0,0,0-1,1.57V20.46l-.12.77a82.31,82.31,0,0,1-7.61,18.24C56.4,45.09,52,49.91,46.37,52.14V93.07A14.6,14.6,0,0,0,50.93,97a14.14,14.14,0,0,0,6.46,1.21H96.73c.7,0,1.61,0,2.47.08,2.57.1,4.2.17,5.94-2.29h0a12.34,12.34,0,0,0,1.71-3.74,24.86,24.86,0,0,0,.79-5l.83-1.77a14.89,14.89,0,0,0,3.9-5.75,21.18,21.18,0,0,0,1-8.67l-.1-1.6,1.36-.84a4.09,4.09,0,0,0,1.64-3,17.44,17.44,0,0,0-.68-7.12l.21-1.94A13.12,13.12,0,0,0,117.51,51a7.29,7.29,0,0,0-1.17-4.38,9.53,9.53,0,0,0-3.59-3.12A16,16,0,0,0,106,41.77H79.51l.6-3.18a85.93,85.93,0,0,0,1.22-8.79,51,51,0,0,0,.13-7.55,20.76,20.76,0,0,0-7.62-15,10.15,10.15,0,0,0-3.41-1.79,3,3,0,0,0-2,0ZM22.64,85.3a5.13,5.13,0,1,1-5.13,5.13,5.13,5.13,0,0,1,5.13-5.13Z"></path>
  </symbol>
  <symbol xmlns="http://www.w3.org/2000/svg" shape-rendering="geometricPrecision" text-rendering="geometricPrecision" image-rendering="optimizeQuality" fill-rule="evenodd" clip-rule="evenodd" viewBox="0 0 512 512" id="like">
    <path fill-rule="nonzero" d="M256 0c70.64 0 134.63 28.67 180.96 74.98C483.33 121.37 512 185.36 512 256c0 70.69-28.67 134.69-74.98 181.01C390.69 483.33 326.69 512 256 512c-70.6 0-134.6-28.67-180.95-74.99l-.09-.1C28.65 390.58 0 326.59 0 256c0-70.69 28.67-134.69 74.99-181.02C121.31 28.67 185.31 0 256 0zm14.26 197.48-15.09 15.89-15.31-15c-14.35-14.14-25.21-24.8-46.25-25.11l-2.72.03c-11.69.42-22.44 4.69-30.22 11.94-7.5 7-12.3 17.02-12.49 29.21l.03 2.6c1.34 37.33 38.97 71.64 70.14 100.05 6.16 5.62 12.1 11.04 18.09 16.8l18.21 17.53 24.39-24.19 16.11-15.61c9.92-9.49 20.91-20.02 31.04-30.51 7.24-7.47 14.07-14.99 19.85-22.14 5.5-6.82 10-13.23 12.77-18.77 4.27-8.54 5.62-17.09 4.72-25.03-.9-7.84-4.01-15.22-8.67-21.52-4.82-6.51-11.26-11.91-18.62-15.59-8.39-4.2-18.05-6.18-27.89-5.05-16.81 1.91-26.41 12.09-38.09 24.47zm-15.86-26.69c13.43-13.86 26.42-24.76 50.56-27.51 15.76-1.8 31.2 1.36 44.64 8.1 11.57 5.79 21.7 14.27 29.25 24.48 7.74 10.45 12.91 22.75 14.4 35.91 1.54 13.37-.68 27.66-7.76 41.79-3.87 7.74-9.51 15.9-16.16 24.15-6.38 7.89-13.81 16.07-21.6 24.12-10.63 11.01-21.85 21.76-31.92 31.39l-15.7 15.2-45.15 44.79-39.23-37.78c-4.96-4.77-11.14-10.4-17.51-16.2-35.37-32.26-78.06-71.16-79.85-121.13l-.04-3.91c.26-21.04 8.73-38.5 21.98-50.85 12.99-12.12 30.61-19.21 49.52-19.89l4.04-.04c29.41.38 44.15 11.65 60.53 27.38zm160.75-73.94C374.45 56.16 318.17 30.98 256 30.98c-62.14 0-118.41 25.2-159.11 65.9C56.16 137.6 30.98 193.86 30.98 256c0 62.18 25.17 118.45 65.85 159.11 40.72 40.74 96.99 65.91 159.17 65.91 62.14 0 118.4-25.18 159.12-65.91 40.7-40.7 65.9-96.97 65.9-159.11 0-62.17-25.18-118.45-65.87-159.15z"></path>
  </symbol>
  <symbol id="dislike" xmlns="http://www.w3.org/2000/svg" viewBox="0 0 122.88 105.01">
    <defs></defs>
    <title>dislike</title>
    <path d="M4,61.65H32.37a4,4,0,0,0,4-4V4a4.05,4.05,0,0,0-4-4H4A4,4,0,0,0,0,4V57.62a4,4,0,0,0,4,4ZM62.16,98.71a7.35,7.35,0,0,0,4.07,5.65,8.14,8.14,0,0,0,5.56.32,15.53,15.53,0,0,0,5.3-2.71,26.23,26.23,0,0,0,9.72-18.86,57.44,57.44,0,0,0-.12-8.35c-.17-2-.42-4-.76-6.15h20.2a21.57,21.57,0,0,0,9.1-2.32,14.87,14.87,0,0,0,5.6-4.92,12.59,12.59,0,0,0,2-7.52,18.1,18.1,0,0,0-1.82-6.92,21.87,21.87,0,0,0,.54-8.39,9.68,9.68,0,0,0-2.78-5.67,25.28,25.28,0,0,0-1.4-9.44,19.9,19.9,0,0,0-4.5-7,28.09,28.09,0,0,0-.9-5A17.35,17.35,0,0,0,109.5,6h0C106.07,1.14,103.33,1.25,99,1.43c-.61,0-1.26.05-2.26.05H57.39a19.08,19.08,0,0,0-8.86,1.78,20.9,20.9,0,0,0-7,6.06L41,11V56.86l2,.54c5.08,1.37,9.07,5.7,12.16,10.89a76,76,0,0,1,7,16.64V98.2l.06.51Zm6.32.78a2.13,2.13,0,0,1-1-1.57V84.55l-.12-.77a82.5,82.5,0,0,0-7.61-18.24C56.4,59.92,52,55.1,46.37,52.87V11.94a14.87,14.87,0,0,1,4.56-3.88,14.14,14.14,0,0,1,6.46-1.21H96.73c.7,0,1.61,0,2.47-.07,2.57-.11,4.2-.17,5.94,2.28v0a12.12,12.12,0,0,1,1.71,3.74,24.63,24.63,0,0,1,.79,5l.83,1.76a15,15,0,0,1,3.9,5.75,21.23,21.23,0,0,1,1,8.68l-.1,1.59,1.36.84a4.09,4.09,0,0,1,1.64,3,17.44,17.44,0,0,1-.68,7.12l.21,1.94A13.16,13.16,0,0,1,117.51,54a7.34,7.34,0,0,1-1.17,4.39,9.61,9.61,0,0,1-3.59,3.12,16,16,0,0,1-6.71,1.7H79.51l.6,3.18a85.37,85.37,0,0,1,1.22,8.78,51.11,51.11,0,0,1,.13,7.56,20.78,20.78,0,0,1-7.62,14.95,10.29,10.29,0,0,1-3.41,1.78,3,3,0,0,1-2,0ZM22.64,19.71a5.13,5.13,0,1,0-5.13-5.13,5.13,5.13,0,0,0,5.13,5.13Z"></path>
  </symbol>
  <symbol id="food" xmlns="http://www.w3.org/2000/svg" viewBox="0 0 120.76 122.88">
    <title>food-grade</title>
    <path d="M.9,117.58c7.24-.32,12.93-1.61,17.39-3.87a23.26,23.26,0,0,0,9.86-9.38C31.82,98,31.61,90.94,31.4,83.58l-.09-3.14c-8.93-1.15-15.85-3.85-20.88-8.1C4.84,67.62,1.65,61.1.7,52.81-.86,39.3.68,14.87.68,0h84v52.8l-.1.35c-2,7.69-5.66,14-11.47,18.77-5.29,4.31-12.34,7.21-21.59,8.47l-.08,3c-.21,7.39-.43,15.39,2.74,21.26A21.2,21.2,0,0,0,64.06,114c4.53,2.15,10.23,3.28,17.16,3.58l-.23,5.3c-7.64-.33-14-1.62-19.19-4.08a26.39,26.39,0,0,1-12.28-11.57c-3.83-7.1-3.59-15.84-3.36-23.93,0-1.62.09-3.23.09-5.24v-2.4l2.39-.24c9.34-1,16.21-3.57,21.15-7.59,4.77-3.89,7.81-9.19,9.58-15.66V5.36H6v47c.82,6.83,3.39,12.14,7.86,15.91,4.63,3.91,11.35,6.29,20.32,7.13l2.42.23v2.41c0,2.12,0,3.76.1,5.38.24,8.12.46,15.92-4,23.55a28.41,28.41,0,0,1-12.06,11.46c-5.13,2.6-11.53,4.08-19.55,4.43l-.23-5.3ZM120.63,0c0,12.94.31,26.18,0,39.08a7.23,7.23,0,0,1-.73,3.75A21.87,21.87,0,0,1,114.33,51,17.66,17.66,0,0,1,108,54.65v67.54H102.7V50.48l2.11-.45a12.86,12.86,0,0,0,6-3A16.63,16.63,0,0,0,115,40.84a3.36,3.36,0,0,0,.34-1.76c0-13,0-26,0-39.08ZM108.89,0V31.88h-5.33V0ZM97.15,0V31.88H91.82V0Z"></path>
  </symbol>
</svg>