<svg width="0" height="0" class="hidden">
  <symbol xmlns="http://www.w3.org/2000/svg" shape-rendering="geometricPrecision" text-rendering="geometricPrecision" image-rendering="optimizeQuality" fill-rule="evenodd" clip-rule="evenodd" viewBox="0 0 512 365.27" id="train">
    <path fill-rule="nonzero" d="M156.17 14.05C169.85 3.54 181.84-1.56 193.1.42c11.49 2.01 21.14 11.08 29.68 28.84l.27.66c6.47 17.98 15.51 29.99 26.54 37.39 10.98 7.36 24.19 10.31 38.96 10.14 4.31-.04 9.16-.69 14.03-1.33 15.14-2.02 30.58-4.07 43 7.99 7.91 7.68 8.74 17.6 9.95 32.1l.31 3.71.03.76c1.22 27.73 7.15 63.93 20.92 92.3 9.83 20.25 23.64 36.36 42.51 41.83 8.79 2.56 19.33 2.18 29.7 1.81 18.63-.67 36.81-1.32 49.95 12.81 3.21 3.45 5.68 7.61 7.56 12.45 1.76 4.49 3.03 9.62 3.97 15.34.31 1.86.55 3.74.72 5.65.45.86.73 1.84.79 2.87.06 1.08-.13 2.11-.52 3.04.05 7.76-1.2 15.53-4.18 22.44-3.96 9.19-10.85 16.84-21.59 21.05-8.72 3.43-25.78 6-44.32 7.77-25.5 2.44-54.22 3.44-67.15 3.09-44.62-1.19-77.38-8.91-104.76-24.01-27.39-15.11-49.09-37.43-71.67-67.84-26.74-36.02-32.98-40.7-54.91-57.13-5.03-3.76-10.82-8.1-17.28-13.1-18.58-14.36-37.48-31.92-51.21-50.41-10.09-13.58-17.46-27.76-20.02-41.71-2.72-14.72-.18-29.03 9.84-41.99 3.6-4.65 8.16-9.1 13.78-13.27 4.04-3 8.84-5.75 14.13-8.29 5.23-2.51 10.79-4.78 16.48-6.86 5.33-1.95 9.31-3.33 12.68-4.49 8.73-3.01 13.45-4.64 19.61-8.59 1.84-1.18 3.93-2.65 6.39-4.48 2.67-1.99 5.47-4.18 8.58-6.68l.3-.23zm66.51 333.14c4.99 0 9.04 4.05 9.04 9.04 0 4.99-4.05 9.04-9.04 9.04h-36.14c-4.99 0-9.04-4.05-9.04-9.04 0-4.99 4.05-9.04 9.04-9.04h36.14zm-90.62 0c4.99 0 9.04 4.05 9.04 9.04 0 4.99-4.05 9.04-9.04 9.04H9.04c-4.99 0-9.04-4.05-9.04-9.04 0-4.99 4.05-9.04 9.04-9.04h123.02zm36.49-59.23c4.99 0 9.04 4.05 9.04 9.04 0 4.99-4.05 9.04-9.04 9.04H9.04C4.05 306.04 0 301.99 0 297c0-4.99 4.05-9.04 9.04-9.04h159.51zm-56.15-59.23c4.99 0 9.04 4.05 9.04 9.04 0 4.99-4.05 9.04-9.04 9.04H92.71c-4.99 0-9.04-4.05-9.04-9.04 0-4.99 4.05-9.04 9.04-9.04h19.69zm-59.13 0c4.99 0 9.05 4.05 9.05 9.04 0 4.99-4.06 9.04-9.05 9.04H9.04c-4.99 0-9.04-4.05-9.04-9.04 0-4.99 4.05-9.04 9.04-9.04h44.23zM35.78 169.5c4.99 0 9.04 4.05 9.04 9.04 0 4.99-4.05 9.04-9.04 9.04H9.04c-4.99 0-9.04-4.05-9.04-9.04 0-4.99 4.05-9.04 9.04-9.04h26.74zm129-144.48 8.51 20.54-32.18 17.48-10.9-17.31-4.38 1.52c-3.57 1.23-7.75 2.67-12.41 4.38-5.54 2.03-10.74 4.13-15.28 6.32-2.68 1.28-5.2 2.62-7.51 4.02 4.78 11.02 10.24 21.4 16.33 31.14 6.78 10.85 14.31 20.85 22.52 30.02 7 7.81 13.58 13.93 19.8 19 6.16 5.01 12.08 9.06 17.73 12.69 36.08 23.21 47.53 42 60.39 63.1 7.98 13.09 16.54 27.13 32.48 43.74 14.4 15.01 29.47 26.32 45.41 34.12 15.85 7.76 32.66 12.12 50.64 13.28 26.88 1.75 61.99-1.82 95.71-5.25 15.63-1.58 30.98-3.14 45.11-4.14l-.03-.21c-.78-4.74-1.81-8.93-3.21-12.5-1.26-3.23-2.83-5.92-4.77-8.02-8.82-9.48-23.85-8.94-39.25-8.39-11.46.41-23.11.83-34.07-2.35-20.84-6.05-36.29-21.86-47.5-42.04-7.62 5.77-15.09 9.66-22.63 11.32-9.08 2.01-17.82.83-26.46-4.05-5.15-2.92-6.95-9.48-4.03-14.63s9.47-6.95 14.62-4.03c3.72 2.1 7.44 2.62 11.25 1.78 4.72-1.05 9.98-4.06 15.81-8.7.72-.56 1.48-1.02 2.27-1.38-1.23-3.17-2.39-6.4-3.47-9.66-6.43 4.4-12.77 7.41-19.16 8.82-9.08 2.01-17.82.83-26.46-4.06-5.15-2.92-6.96-9.47-4.03-14.62 2.92-5.15 9.47-6.96 14.62-4.04 3.72 2.11 7.44 2.63 11.25 1.78 4.72-1.04 9.98-4.05 15.81-8.69.59-.47 1.21-.87 1.85-1.19-1.15-5.03-2.16-10.06-3.02-15.04-6.44 4.41-12.79 7.42-19.19 8.84-9.08 2.01-17.83.83-26.46-4.06-5.15-2.92-6.96-9.47-4.04-14.62 2.93-5.15 9.48-6.96 14.63-4.04 3.72 2.1 7.43 2.63 11.25 1.78 4.72-1.04 9.98-4.06 15.81-8.69a10.68 10.68 0 0 1 4.9-2.19c-.52-5.36-.88-10.55-1.1-15.49l-.34-3.94c-.95-11.42-1.61-19.23-5.75-23.25-7.56-7.35-19.63-5.75-31.47-4.17-5.24.7-10.47 1.39-15.72 1.45-17.48.19-33.32-3.44-46.83-12.5-13.37-8.97-24.21-23.11-31.76-43.92-6.34-13.07-12.61-19.6-19.37-20.78-6.92-1.22-15.45 2.8-25.92 10.83zm332.56 288.59c-13.92.98-28.99 2.52-44.34 4.08-34.3 3.49-70.03 7.12-97.95 5.31-19.77-1.29-38.32-6.11-55.87-14.71-17.47-8.55-33.84-20.79-49.36-36.96-17.02-17.73-25.98-32.44-34.33-46.15-11.97-19.64-22.64-37.14-56.02-58.61-5.94-3.82-12.23-8.12-18.99-13.63-6.71-5.46-13.81-12.08-21.38-20.52a230.632 230.632 0 0 1-24-31.93c-5.79-9.27-11.06-19.14-15.78-29.63a48.494 48.494 0 0 0-4.06 4.6c-7.34 9.49-9.18 20.05-7.17 30.96 2.15 11.67 8.6 23.93 17.51 35.92 12.89 17.35 30.83 33.99 48.53 47.68 7 5.41 12.43 9.48 17.12 12.99 23.22 17.4 29.82 22.34 57.75 59.97 21.41 28.84 41.8 49.89 67.2 63.9 25.41 14.02 56.16 21.19 98.36 22.32 12.54.34 40.52-.65 65.5-3.04 17.38-1.66 33.11-3.96 40.56-6.89 6.85-2.69 11.27-7.63 13.83-13.57 1.6-3.72 2.52-7.84 2.89-12.09z"></path>
  </symbol>
  <symbol version="1.1" id="arm" xmlns="http://www.w3.org/2000/svg" xmlns:xlink="http://www.w3.org/1999/xlink" x="0px" y="0px" xml:space="preserve" viewBox="0 0 84.84 122.88">
    <g>
      <path d="M60.21,89.08c0.7,0.3,1.03,1.11,0.73,1.82c-0.3,0.7-1.11,1.03-1.82,0.73c-4.63-1.98-7.74-6.1-9.8-11.7 c-4.91-3.04-9.55-4.56-13.93-4.61c-4.16-0.05-8.12,1.23-11.89,3.81c2.2,1.91,4.01,4.28,5.39,7.12c0.34,0.69,0.05,1.52-0.64,1.86 c-0.69,0.34-1.52,0.05-1.86-0.64c-2.04-4.2-5.12-7.2-9.14-9.11c-4.11-1.96-9.24-2.8-15.27-2.63c-0.76,0.02-1.4-0.58-1.42-1.35 c-0.02-0.77,0.58-1.4,1.35-1.42c6.48-0.18,12.02,0.74,16.53,2.89c0.96,0.46,1.87,0.97,2.74,1.53c4.47-3.26,9.22-4.88,14.23-4.83 c4.08,0.05,8.31,1.21,12.7,3.5c-0.21-0.8-0.4-1.61-0.58-2.45c-1.34-6.35-1.85-13.91-1.96-22.05c0.96-0.57,1.88-1.21,2.75-1.9 c0.05,8.69,0.52,16.75,1.93,23.39C51.93,80.98,54.94,86.82,60.21,89.08L60.21,89.08L60.21,89.08z M27.85,19.88 c1.55,0,2.96,0.63,3.97,1.65c1.02,1.02,1.65,2.42,1.65,3.97c0,1.55-0.63,2.96-1.65,3.97c-1.02,1.02-2.42,1.65-3.97,1.65 c-1.55,0-2.96-0.63-3.97-1.65c-1.02-1.02-1.65-2.42-1.65-3.97c0-1.55,0.63-2.96,1.65-3.97C24.89,20.51,26.3,19.88,27.85,19.88 L27.85,19.88z M27.85,9.21c4.5,0,8.57,1.82,11.52,4.77c2.95,2.95,4.77,7.02,4.77,11.52c0,4.5-1.82,8.57-4.77,11.52 c-2.95,2.95-7.02,4.77-11.52,4.77s-8.57-1.82-11.52-4.77c-2.95-2.95-4.77-7.02-4.77-11.52c0-4.5,1.82-8.57,4.77-11.52 S23.35,9.21,27.85,9.21L27.85,9.21z M37.53,15.82c-2.48-2.48-5.9-4.01-9.68-4.01c-3.78,0-7.2,1.53-9.68,4.01 c-2.48,2.48-4.01,5.9-4.01,9.68c0,3.78,1.53,7.2,4.01,9.68c2.48,2.48,5.9,4.01,9.68,4.01c3.78,0,7.2-1.53,9.68-4.01 c2.48-2.48,4.01-5.9,4.01-9.68C41.54,21.72,40.01,18.3,37.53,15.82L37.53,15.82z M27.85,0c14.08,0,25.5,11.42,25.5,25.5 c0,14.08-11.42,25.5-25.5,25.5S2.35,39.59,2.35,25.5c0-7.04,2.86-13.42,7.47-18.03C14.43,2.85,20.81,0,27.85,0L27.85,0z M49.16,25.5c0-11.77-9.54-21.31-21.31-21.31c-5.88,0-11.21,2.38-15.07,6.24c-3.86,3.86-6.24,9.18-6.24,15.07 c0,11.77,9.54,21.31,21.31,21.31S49.16,37.27,49.16,25.5L49.16,25.5z M29.85,23.5c-0.51-0.51-1.22-0.83-2-0.83s-1.49,0.32-2,0.83 c-0.51,0.51-0.83,1.22-0.83,2c0,0.78,0.32,1.49,0.83,2c0.51,0.51,1.22,0.83,2,0.83s1.49-0.32,2-0.83c0.51-0.51,0.83-1.22,0.83-2 C30.68,24.72,30.37,24.01,29.85,23.5L29.85,23.5z M57.19,29.9c6.92,5.86,12.21,13.55,16.14,22.76c4.89,11.46,7.69,25.25,8.94,40.75 c2.2,6.3,3.22,11.4,2.15,15.12c-1.16,4.03-4.5,6.35-10.99,6.72c-16.08,4.09-30.36,6.65-42.5,7.4c-12.28,0.76-22.41-0.33-30.06-3.54 c-0.71-0.29-1.04-1.11-0.75-1.81c0.29-0.71,1.11-1.04,1.81-0.75c7.26,3.04,16.97,4.07,28.84,3.33c11.97-0.74,26.11-3.28,42.09-7.35 l0,0c0.09-0.02,0.18-0.04,0.28-0.04c5.19-0.26,7.8-1.9,8.62-4.72c0.89-3.11-0.09-7.71-2.13-13.53c-0.06-0.14-0.1-0.29-0.11-0.44 c-1.22-15.28-3.95-28.85-8.74-40.05c-3.43-8.04-7.92-14.86-13.67-20.22c0.08-0.78,0.12-1.57,0.12-2.38 C57.22,30.73,57.21,30.31,57.19,29.9L57.19,29.9z"></path>
    </g>
  </symbol>
</svg>