<svg width="0" height="0" class="hidden">
  <symbol version="1.1" id="fitness-svgrepo-com" xmlns="http://www.w3.org/2000/svg" xmlns:xlink="http://www.w3.org/1999/xlink" x="0px" y="0px" xml:space="preserve" viewBox="0 0 412.452 412.452">
    <path id="XMLID_47_" d="M345.823,241.2c-3.652,0-7.225,0.495-10.652,1.463c-4.233-17.117-19.722-29.844-38.127-29.844
	c-21.656,0-39.274,17.617-39.274,39.271v28.25H154.682v-28.25c0-21.654-17.618-39.271-39.273-39.271
	c-18.406,0-33.895,12.728-38.128,29.844c-3.427-0.967-6.999-1.462-10.651-1.462c-21.654,0-39.271,17.617-39.271,39.271v64.328
	c0,21.654,17.618,39.271,39.272,39.271c3.651,0,7.223-0.495,10.65-1.463c4.233,17.116,19.723,29.844,38.128,29.844
	c21.655,0,39.272-17.617,39.272-39.271v-28.248H257.77v28.248c0,21.654,17.618,39.271,39.272,39.271
	c18.406,0,33.895-12.728,38.128-29.844c3.427,0.968,7,1.463,10.65,1.463c21.655,0,39.272-17.617,39.272-39.271v-64.328
	C385.094,258.817,367.477,241.2,345.823,241.2z M76.138,363.81c-2.935,1.488-6.161,2.261-9.507,2.261
	c-11.729,0-21.272-9.542-21.272-21.271v-64.328c0-11.729,9.542-21.271,21.271-21.271c3.348,0,6.575,0.773,9.508,2.26V363.81z
	 M136.682,373.181c0,11.729-9.543,21.271-21.272,21.271s-21.272-9.542-21.272-21.271v-4.39c0-0.059,0-0.117,0-0.176V256.657
	c0-0.059,0-0.119,0-0.179v-4.388c0-11.729,9.542-21.271,21.271-21.271c11.73,0,21.273,9.542,21.273,21.271V373.181z M257.77,326.933
	H154.682v-28.592H257.77V326.933z M318.314,256.477c0,0.061,0,0.122,0,0.182v111.955c0,0.059,0,0.118,0,0.176v4.39
	c0,11.729-9.542,21.271-21.272,21.271s-21.272-9.542-21.272-21.271v-37.248V252.09c0-11.729,9.543-21.271,21.274-21.271
	c11.729,0,21.271,9.542,21.271,21.271V256.477z M367.094,344.799c0,11.729-9.543,21.271-21.272,21.271
	c-3.346,0-6.572-0.773-9.507-2.261V261.46c2.934-1.487,6.161-2.26,9.509-2.26c11.729,0,21.271,9.542,21.271,21.271V344.799z
	 M158.243,134.99c0,4.971-4.029,9-9,9h-16.239c-4.971,0-9-4.029-9-9s4.029-9,9-9h16.239
	C154.214,125.99,158.243,130.019,158.243,134.99z M158.243,163.998c0,4.971-4.029,9-9,9h-16.239c-4.971,0-9-4.029-9-9s4.029-9,9-9
	h16.239C154.214,154.998,158.243,159.027,158.243,163.998z M80.58,203.729c4.971,0,9-4.029,9-9v-20.161
	c11.87-6.959,19.494-19.902,19.494-33.926c0-14.023-7.624-26.967-19.494-33.926v-0.667c0-11.729,9.542-21.272,21.271-21.272h60.545
	c10.472,0,19.2,7.604,20.953,17.581c-12.922,12.686-22.591,33.204-22.591,48.797c0,19.034,10.503,30.727,22.912,34.502v67.457
	c0,4.971,4.029,9,9,9s9-4.029,9-9v-67.456c12.408-3.774,22.912-15.468,22.912-34.503c0-15.81-9.942-36.687-23.137-49.326
	c-1.76-16.396-13.654-29.806-29.274-33.821V40.59c0-4.971-4.029-9-9-9h-4.694V9c0-4.971-4.029-9-9-9h-34.705c-4.971,0-9,4.029-9,9
	v22.59h-4.695c-4.971,0-9,4.029-9,9v27.418c-16.939,4.356-29.496,19.76-29.496,38.041v6.297c0,3.734,2.306,7.08,5.795,8.41
	c8.194,3.123,13.699,11.114,13.699,19.886s-5.505,16.763-13.699,19.885c-3.49,1.33-5.795,4.676-5.795,8.41v25.791
	C71.58,199.7,75.609,203.729,80.58,203.729z M201.669,118.782c7.87,9.41,13.912,22.929,13.912,32.373
	c0,12.327-6.987,17.844-13.911,17.844c-6.925,0-13.913-5.519-13.913-17.844C187.758,141.71,193.799,128.191,201.669,118.782z
	 M132.771,18h16.705v13.59h-16.705V18z M119.076,49.59h44.094v17.187h-44.094V49.59z M308.281,252.747v3.472c0,4.971-4.029,9-9,9
	s-9-4.029-9-9v-3.472c0-4.971,4.029-9,9-9S308.281,247.776,308.281,252.747z"></path>
    <g></g>
    <g></g>
    <g></g>
    <g></g>
    <g></g>
    <g></g>
    <g></g>
    <g></g>
    <g></g>
    <g></g>
    <g></g>
    <g></g>
    <g></g>
    <g></g>
    <g></g>
  </symbol>
  <symbol version="1.1" id="food-svgrepo-com" xmlns="http://www.w3.org/2000/svg" xmlns:xlink="http://www.w3.org/1999/xlink" x="0px" y="0px" xml:space="preserve" viewBox="0 0 60 60">
    <g>
      <path d="M18.35,20.805c0.195,0.195,0.451,0.293,0.707,0.293c0.256,0,0.512-0.098,0.707-0.293c0.391-0.391,0.391-1.023,0-1.414
		c-1.015-1.016-1.015-2.668,0-3.684c0.87-0.87,1.35-2.026,1.35-3.256s-0.479-2.386-1.35-3.256c-0.391-0.391-1.023-0.391-1.414,0
		s-0.391,1.023,0,1.414c0.492,0.492,0.764,1.146,0.764,1.842s-0.271,1.35-0.764,1.842C16.555,16.088,16.555,19.01,18.35,20.805z"></path>
      <path d="M40.35,20.805c0.195,0.195,0.451,0.293,0.707,0.293c0.256,0,0.512-0.098,0.707-0.293c0.391-0.391,0.391-1.023,0-1.414
		c-1.015-1.016-1.015-2.668,0-3.684c0.87-0.87,1.35-2.026,1.35-3.256s-0.479-2.386-1.35-3.256c-0.391-0.391-1.023-0.391-1.414,0
		s-0.391,1.023,0,1.414c0.492,0.492,0.764,1.146,0.764,1.842s-0.271,1.35-0.764,1.842C38.555,16.088,38.555,19.01,40.35,20.805z"></path>
      <path d="M29.35,14.805c0.195,0.195,0.451,0.293,0.707,0.293c0.256,0,0.512-0.098,0.707-0.293c0.391-0.391,0.391-1.023,0-1.414
		c-1.015-1.016-1.015-2.668,0-3.684c0.87-0.87,1.35-2.026,1.35-3.256s-0.479-2.386-1.35-3.256c-0.391-0.391-1.023-0.391-1.414,0
		s-0.391,1.023,0,1.414c0.492,0.492,0.764,1.146,0.764,1.842s-0.271,1.35-0.764,1.842C27.555,10.088,27.555,13.01,29.35,14.805z"></path>
      <path d="M25.345,28.61c0.073,0,0.147-0.008,0.221-0.024c1.438-0.324,2.925-0.488,4.421-0.488c0.004,0,0.008,0,0.013,0h0
		c0.552,0,1-0.447,1-0.999c0-0.553-0.447-1.001-1-1.001c-0.004,0-0.009,0-0.014,0c-1.643,0-3.278,0.181-4.86,0.537
		c-0.539,0.121-0.877,0.656-0.756,1.195C24.476,28.295,24.888,28.61,25.345,28.61z"></path>
      <path d="M9.821,45.081c0.061,0.012,0.121,0.017,0.18,0.017c0.474,0,0.895-0.338,0.983-0.82c1.039-5.698,4.473-10.768,9.186-13.56
		c0.475-0.281,0.632-0.895,0.351-1.37c-0.282-0.475-0.895-0.632-1.37-0.351c-5.204,3.083-8.992,8.661-10.134,14.921
		C8.917,44.462,9.277,44.982,9.821,45.081z"></path>
      <path d="M55.624,43.721C53.812,33.08,45.517,24.625,34.957,22.577c0.017-0.16,0.043-0.321,0.043-0.48c0-2.757-2.243-5-5-5
		s-5,2.243-5,5c0,0.159,0.025,0.32,0.043,0.48C14.483,24.625,6.188,33.08,4.376,43.721C2.286,44.904,0,46.645,0,48.598
		c0,5.085,15.512,8.5,30,8.5s30-3.415,30-8.5C60,46.645,57.714,44.904,55.624,43.721z M27.006,22.27
		C27.002,22.212,27,22.154,27,22.098c0-1.654,1.346-3,3-3s3,1.346,3,3c0,0.057-0.002,0.114-0.006,0.172
		c-0.047-0.005-0.094-0.007-0.14-0.012c-0.344-0.038-0.69-0.065-1.038-0.089c-0.128-0.009-0.255-0.022-0.383-0.029
		c-0.474-0.026-0.951-0.041-1.432-0.041s-0.958,0.015-1.432,0.041c-0.128,0.007-0.255,0.02-0.383,0.029
		c-0.348,0.024-0.694,0.052-1.038,0.089C27.1,22.263,27.053,22.264,27.006,22.27z M26.399,24.368
		c0.537-0.08,1.077-0.138,1.619-0.182c0.111-0.009,0.222-0.017,0.333-0.025c1.098-0.074,2.201-0.074,3.299,0
		c0.111,0.008,0.222,0.016,0.333,0.025c0.542,0.044,1.082,0.102,1.619,0.182c10.418,1.575,18.657,9.872,20.152,20.316
		c0.046,0.321,0.083,0.643,0.116,0.965c0.011,0.111,0.026,0.221,0.036,0.332c0.039,0.443,0.068,0.886,0.082,1.329
		c-15.71,3.641-32.264,3.641-47.974,0c0.015-0.443,0.043-0.886,0.082-1.329c0.01-0.111,0.024-0.221,0.036-0.332
		c0.033-0.323,0.07-0.645,0.116-0.965C7.742,34.24,15.981,25.942,26.399,24.368z M30,55.098c-17.096,0-28-4.269-28-6.5
		c0-0.383,0.474-1.227,2.064-2.328c-0.004,0.057-0.002,0.113-0.006,0.17C4.024,46.988,4,47.54,4,48.098v0.788l0.767,0.185
		c8.254,1.98,16.744,2.972,25.233,2.972s16.979-0.991,25.233-2.972L56,48.886v-0.788c0-0.558-0.024-1.109-0.058-1.658
		c-0.004-0.057-0.002-0.113-0.006-0.17C57.526,47.371,58,48.215,58,48.598C58,50.829,47.096,55.098,30,55.098z"></path>
    </g>
    <g></g>
    <g></g>
    <g></g>
    <g></g>
    <g></g>
    <g></g>
    <g></g>
    <g></g>
    <g></g>
    <g></g>
    <g></g>
    <g></g>
    <g></g>
    <g></g>
    <g></g>
  </symbol>
  <symbol version="1.1" id="running-gym-svgrepo-com" xmlns="http://www.w3.org/2000/svg" xmlns:xlink="http://www.w3.org/1999/xlink" x="0px" y="0px" xml:space="preserve" viewBox="0 0 512 512">
    <g transform="translate(0 1)">
      <g>
        <g>
          <path d="M512,411.328c0-33.28-26.453-59.733-59.733-59.733H137.771l22.497-170.667h5.279c16.213,0,32.427-6.827,45.227-18.773
				c5.12-5.12,11.093-8.533,17.92-11.093c7.68-2.56,15.36-4.267,23.893-4.267h26.453c11.093,0,19.627-8.533,19.627-19.627v-11.947
				c0-11.093-8.533-19.627-19.627-19.627H177.493c-5.973,0-11.093-4.267-13.653-9.387l-31.573-69.973
				c-1.707-5.12-5.973-8.533-11.093-10.24s-10.24-1.707-15.36,0.853l-14.507,7.68c-9.387,5.12-13.653,16.213-9.387,25.6
				l28.16,64.853l-16.213,64.853L43.712,353.737C18.354,360.647,0,383.612,0,411.328c0,30.378,22.045,55.056,51.2,59.131v9.136
				c0,14.507,11.093,25.6,25.6,25.6h93.867c13.653,0,25.6-11.093,25.6-25.6v-8.533h179.2v8.533c0,14.507,11.947,25.6,25.6,25.6
				H435.2c14.507,0,25.6-11.093,25.6-25.6v-9.159C489.343,466.281,512,441.641,512,411.328z M393.918,398.401
				c-0.051,0.234-0.111,0.465-0.159,0.7c-0.09,0.44-0.16,0.887-0.24,1.331c-0.103,0.567-0.213,1.131-0.3,1.705
				c-0.029,0.192-0.047,0.388-0.074,0.581c-0.115,0.81-0.224,1.622-0.306,2.446c-0.013,0.134-0.018,0.272-0.031,0.406
				c-0.081,0.875-0.154,1.754-0.198,2.645c-0.052,1.031-0.078,2.068-0.078,3.113s0.026,2.083,0.078,3.113
				c0.044,0.89,0.116,1.769,0.198,2.645c0.013,0.135,0.017,0.272,0.031,0.406c0.082,0.824,0.191,1.638,0.306,2.448
				c0.027,0.192,0.045,0.387,0.074,0.579c0.087,0.574,0.197,1.139,0.3,1.706c0.08,0.443,0.15,0.89,0.239,1.33
				c0.048,0.236,0.108,0.466,0.159,0.7c2.496,11.552,8.272,21.8,16.337,29.739H384H187.733h-85.989
				c8.065-7.94,13.841-18.187,16.337-29.739c0.051-0.234,0.111-0.465,0.159-0.7c0.089-0.44,0.159-0.887,0.239-1.33
				c0.103-0.567,0.213-1.132,0.3-1.706c0.029-0.191,0.047-0.387,0.074-0.579c0.115-0.811,0.224-1.624,0.306-2.448
				c0.013-0.134,0.018-0.272,0.031-0.406c0.081-0.875,0.154-1.754,0.198-2.645c0.052-1.031,0.078-2.068,0.078-3.113
				s-0.026-2.083-0.078-3.113c-0.044-0.89-0.116-1.769-0.198-2.645c-0.013-0.135-0.017-0.272-0.031-0.406
				c-0.082-0.824-0.191-1.636-0.306-2.446c-0.027-0.193-0.045-0.389-0.074-0.581c-0.087-0.574-0.197-1.138-0.3-1.705
				c-0.08-0.444-0.15-0.891-0.24-1.331c-0.048-0.236-0.108-0.466-0.159-0.7c-2.496-11.552-8.272-21.8-16.337-29.739H128h282.256
				C402.191,376.601,396.415,386.848,393.918,398.401z M120.32,351.595H62.293l4.716-17.148c0.408,0.048,0.824,0.081,1.258,0.081
				h25.6c4.267,0,8.533-3.413,8.533-8.533s-3.413-8.533-8.533-8.533H71.68l4.698-17.084c0.141,0.005,0.278,0.018,0.422,0.018h25.6
				c4.267,0,8.533-3.413,8.533-8.533c0-5.12-3.413-8.533-8.533-8.533H81.067l28.16-102.4h34.133L120.32,351.595z M97.28,33.301
				c-0.853-1.707,0-2.56,0.853-3.413l14.507-7.68c0.853,0,0.853,0,1.707,0s1.707,0,1.707,0.853l31.573,69.973
				c5.973,11.093,17.067,18.773,29.867,18.773h102.4c1.707,0,2.56,0.853,2.56,2.56v11.947c0,1.707-0.853,2.56-2.56,2.56H253.44
				c-10.24,0-20.48,1.707-29.867,5.12c-9.387,3.413-17.92,8.533-24.747,15.36c-9.387,9.387-20.48,14.507-32.427,14.507h-13.653
				h-39.253L128,106.688c0-2.56,0-5.12-1.707-6.827L97.28,33.301z M17.067,411.328c0-23.893,18.773-42.667,42.667-42.667
				c23.04,0,42.667,18.773,42.667,42.667c0,23.893-18.773,42.667-42.667,42.667S17.067,435.221,17.067,411.328z M179.2,479.595
				c0,5.12-3.413,8.533-8.533,8.533H76.8c-5.12,0-8.533-3.413-8.533-8.533v-8.533H179.2V479.595z M443.733,479.595
				c0,5.12-4.267,8.533-8.533,8.533h-34.133c-5.12,0-8.533-4.267-8.533-8.533v-8.533h51.2V479.595z M452.267,453.995
				c-23.893,0-42.667-18.773-42.667-42.667c0-23.893,18.773-42.667,42.667-42.667c23.04,0,42.667,18.773,42.667,42.667
				C494.933,435.221,476.16,453.995,452.267,453.995z"></path>
          <path d="M247.467,419.861h17.067c4.267,0,8.533-3.413,8.533-8.533c0-5.12-3.413-8.533-8.533-8.533h-17.067
				c-5.12,0-8.533,3.413-8.533,8.533C238.933,416.448,242.347,419.861,247.467,419.861z"></path>
          <path d="M298.667,419.861h17.067c4.267,0,8.533-3.413,8.533-8.533c0-5.12-3.413-8.533-8.533-8.533h-17.067
				c-5.12,0-8.533,3.413-8.533,8.533C290.133,416.448,293.547,419.861,298.667,419.861z"></path>
          <path d="M349.867,419.861h17.067c4.267,0,8.533-3.413,8.533-8.533c0-5.12-3.413-8.533-8.533-8.533h-17.067
				c-5.12,0-8.533,3.413-8.533,8.533C341.333,416.448,344.747,419.861,349.867,419.861z"></path>
          <path d="M196.267,419.861h17.067c4.267,0,8.533-3.413,8.533-8.533c0-5.12-3.413-8.533-8.533-8.533h-17.067
				c-5.12,0-8.533,3.413-8.533,8.533C187.733,416.448,191.147,419.861,196.267,419.861z"></path>
          <path d="M145.067,419.861h17.067c4.267,0,8.533-3.413,8.533-8.533c0-5.12-3.413-8.533-8.533-8.533h-17.067
				c-5.12,0-8.533,3.413-8.533,8.533C136.533,416.448,139.947,419.861,145.067,419.861z"></path>
        </g>
      </g>
    </g>
    <g></g>
    <g></g>
    <g></g>
    <g></g>
    <g></g>
    <g></g>
    <g></g>
    <g></g>
    <g></g>
    <g></g>
    <g></g>
    <g></g>
    <g></g>
    <g></g>
    <g></g>
  </symbol>
  <symbol version="1.1" id="gym-svgrepo-com" xmlns="http://www.w3.org/2000/svg" xmlns:xlink="http://www.w3.org/1999/xlink" x="0px" y="0px" xml:space="preserve" viewBox="0 0 512 512">
    <g>
      <g>
        <path d="M30.183,151.899C13.54,151.899,0,165.439,0,182.082v147.835c0,16.643,13.54,30.183,30.183,30.183h20.253V151.899H30.183z"></path>
      </g>
    </g>
    <g>
      <g>
        <path d="M417.164,120.41h-65.84c-16.643,0-30.183,13.54-30.183,30.183v87.293H190.858v-87.293
			c0-16.643-13.54-30.183-30.182-30.183h-65.84c-16.643,0-30.183,13.54-30.183,30.183v210.814c0,16.643,13.54,30.183,30.183,30.183
			h65.84c16.643,0,30.182-13.54,30.182-30.183v-87.301h130.283v87.301c0,16.643,13.54,30.183,30.183,30.183h65.84
			c16.643,0,30.183-13.54,30.183-30.183V150.593C447.347,133.95,433.808,120.41,417.164,120.41z"></path>
      </g>
    </g>
    <g>
      <g>
        <path d="M481.817,151.899h-20.253v208.202h20.253c16.643,0,30.183-13.54,30.183-30.183V182.082
			C512,165.439,498.46,151.899,481.817,151.899z"></path>
      </g>
    </g>
    <g></g>
    <g></g>
    <g></g>
    <g></g>
    <g></g>
    <g></g>
    <g></g>
    <g></g>
    <g></g>
    <g></g>
    <g></g>
    <g></g>
    <g></g>
    <g></g>
    <g></g>
  </symbol>
</svg>